<?xml version="1.0" encoding="utf-8"?>
<svg xmlns="http://www.w3.org/2000/svg" xmlns:xlink="http://www.w3.org/1999/xlink" version="1.1" id="レイヤー_1" x="0px" y="0px" viewBox="0 0 40 40" style="enable-background:new 0 0 40 40;">
<style type="text/css">
	.st0{fill:#333333;}
</style>
<g>
	<polygon class="st0" points="20.2,18.3 14.8,10.5 11.8,10.5 18.6,20.1 19.5,21.4 25.2,29.6 28.2,29.6 21.1,19.5"/>
	<path class="st0" d="M20,0C9,0,0,9,0,20s9,20,20,20s20-9,20-20S31,0,20,0z M24.3,31l-5.9-8.5L11.1,31H9.3l8.4-9.8L9.3,9h6.4&#xA;		l5.6,8.1L28.2,9h1.9l-8,9.4L30.7,31H24.3z"/>
</g>
</svg>