<?xml version="1.0" encoding="utf-8"?>
<svg xmlns="http://www.w3.org/2000/svg" width="40" height="40" viewBox="0 0 40 40">
  <g id="グループ_4095" data-name="グループ 4095" transform="translate(-1007 -5536)">
    <path id="パス_206" data-name="パス 206" d="M0,20A20,20,0,1,1,20,40,20,20,0,0,1,0,20m30.221-4.939a2.709,2.709,0,0,0-1.886-1.937C26.671,12.667,20,12.667,20,12.667s-6.671,0-8.335.458a2.709,2.709,0,0,0-1.886,1.937,29.251,29.251,0,0,0-.446,5.272,29.251,29.251,0,0,0,.446,5.273,2.709,2.709,0,0,0,1.886,1.937C13.329,28,20,28,20,28s6.671,0,8.335-.458a2.709,2.709,0,0,0,1.886-1.937,29.251,29.251,0,0,0,.446-5.273,29.251,29.251,0,0,0-.446-5.272M18,24V17.333l5.333,3.333Z" transform="translate(1007 5536)" fill="#333"/>
  </g>
</svg>